<svg width="182" height="72" viewBox="0 0 182 72" fill="none" xmlns="http://www.w3.org/2000/svg">
<g clip-path="url(#clip0_0_14)">
<path fill-rule="evenodd" clip-rule="evenodd" d="M36.5103 62.8772C21.5493 62.8772 9.42034 50.7482 9.42034 35.7862C9.42034 20.8252 21.5493 8.69624 36.5103 8.69624C51.4713 8.69624 63.5993 20.8252 63.5993 35.7862C63.5993 50.7482 51.4713 62.8772 36.5103 62.8772ZM36.5103 0.0942383C16.7983 0.0942383 0.819336 16.0742 0.819336 35.7862C0.819336 55.4992 16.7983 71.4792 36.5103 71.4792C56.2213 71.4792 72.2003 55.4992 72.2003 35.7862C72.2003 16.0742 56.2213 0.0942383 36.5103 0.0942383Z" fill="#2699BC"/>
<path fill-rule="evenodd" clip-rule="evenodd" d="M1.86941 27.166C1.36841 29.185 1.04041 31.271 0.899414 33.409C1.37341 40.537 3.93841 47.093 7.98841 52.467L12.4534 48.252C10.5154 44.52 9.42041 40.282 9.42041 35.787C9.42041 32.773 9.91341 29.874 10.8214 27.166H1.86941Z" fill="#2699BC"/>
<path fill-rule="evenodd" clip-rule="evenodd" d="M65.0314 52.467C69.0814 47.092 71.6464 40.537 72.1204 33.408C71.9794 31.27 71.6514 29.184 71.1504 27.165H62.1984C63.1064 29.873 63.5994 32.772 63.5994 35.786C63.5994 40.281 62.5044 44.52 60.5664 48.251L65.0314 52.467Z" fill="#2699BC"/>
<path fill-rule="evenodd" clip-rule="evenodd" d="M0.819336 35.7868C0.819336 43.8418 3.48834 51.2728 7.98934 57.2458L26.6483 39.6288V31.9448H1.02634C0.890336 33.2068 0.819336 34.4888 0.819336 35.7868ZM71.9953 31.9448H46.3733V39.6288L65.0313 57.2458C69.5323 51.2728 72.2013 43.8418 72.2013 35.7868C72.2013 34.4888 72.1303 33.2068 71.9953 31.9448Z" fill="#2699BC"/>
<path fill-rule="evenodd" clip-rule="evenodd" d="M46.373 39.6288L50.123 43.1688C51.315 40.9748 51.992 38.4598 51.992 35.7858C51.992 34.4598 51.825 33.1728 51.512 31.9438H46.373V39.6288Z" fill="#2699BC"/>
<path fill-rule="evenodd" clip-rule="evenodd" d="M21.0283 35.7868C21.0283 38.4598 21.7063 40.9748 22.8983 43.1698L26.6483 39.6288V31.9448H22.9843H21.5083C21.1953 33.1728 21.0283 34.4608 21.0283 35.7868Z" fill="#2699BC"/>
<path fill-rule="evenodd" clip-rule="evenodd" d="M36.5107 25.2041C42.3547 25.2041 47.0917 29.9421 47.0917 35.7871C47.0917 41.6311 42.3547 46.3691 36.5107 46.3691C30.6657 46.3691 25.9287 41.6311 25.9287 35.7871C25.9287 29.9421 30.6657 25.2041 36.5107 25.2041Z" fill="#2699BC"/>
<path fill-rule="evenodd" clip-rule="evenodd" d="M36.5108 31.2842C38.9968 31.2842 41.0128 33.3002 41.0128 35.7862C41.0128 38.2732 38.9968 40.2882 36.5108 40.2882C34.0248 40.2882 32.0088 38.2732 32.0088 35.7862C32.0088 33.3002 34.0248 31.2842 36.5108 31.2842Z" fill="#2699BC"/>
<path d="M104.98 48.504C110.452 48.504 114.34 45.624 114.34 40.764C114.34 35.436 110.056 34.104 106.24 32.952C102.316 31.764 101.704 30.972 101.704 29.82C101.704 28.812 102.604 27.912 104.404 27.912C106.708 27.912 107.896 29.028 108.76 30.828L113.62 27.984C111.784 24.276 108.544 22.296 104.404 22.296C100.048 22.296 95.944 25.104 95.944 29.964C95.944 34.788 99.616 36.588 103.36 37.632C107.14 38.676 108.58 39.288 108.58 40.836C108.58 41.808 107.896 42.888 105.16 42.888C102.316 42.888 100.768 41.484 99.868 39.396L94.9 42.276C96.304 45.984 99.688 48.504 104.98 48.504ZM134.319 48L127.587 39L134.139 30H127.839L122.439 37.884V22.8H117.039V48H122.439V40.044L128.199 48H134.319ZM139.004 28.416C140.768 28.416 142.244 26.94 142.244 25.176C142.244 23.412 140.768 21.936 139.004 21.936C137.24 21.936 135.764 23.412 135.764 25.176C135.764 26.94 137.24 28.416 139.004 28.416ZM136.304 48H141.704V30H136.304V48ZM145.656 48H151.056V21.72H145.656V48ZM155.007 48H160.407V21.72H155.007V48ZM175.699 30L172.315 41.016L168.319 30H162.379L169.543 47.172C168.751 49.368 167.563 50.16 165.043 50.16V55.2C170.083 55.452 173.287 53.184 175.303 47.46L181.459 30H175.699Z" fill="#2699BC"/>
</g>
<defs>
<clipPath id="clip0_0_14">
<rect width="182" height="72" fill="white"/>
</clipPath>
</defs>
</svg>
